PathFileType	4	(X/Y/Z)	Run_400 01
DataRate	CameraRate	NumFrames	NumMarkers	Units	OrigDataRate	OrigDataStartFrame	OrigNumFrames
120	120	4	42	mm	120	132	128
Frame#	Time	LASI			RASI			LPSI			RTH1			RTH2			RTH3			LTH1			LTH2			LTH3			RTB1			RTB2			RTB3			LTB1			LTB2			LTB3			RCAL			RTOE			RMT5			LCAL			LTOE			LMT5			LACR			RACR			CLAV			C7			RUA1			RUA2			RUA3			RLEL			RMEL			LUA1			LUA2			LUA3			LLEL			LMEL			RFAsuperior			RFAradius			LFAsuperior			LFAradius			LFAulna			RFAulna			RPSI			
		X1	Y1	Z1	X2	Y2	Z2	X3	Y3	Z3	X4	Y4	Z4	X5	Y5	Z5	X6	Y6	Z6	X7	Y7	Z7	X8	Y8	Z8	X9	Y9	Z9	X10	Y10	Z10	X11	Y11	Z11	X12	Y12	Z12	X13	Y13	Z13	X14	Y14	Z14	X15	Y15	Z15	X16	Y16	Z16	X17	Y17	Z17	X18	Y18	Z18	X19	Y19	Z19	X20	Y20	Z20	X21	Y21	Z21	X22	Y22	Z22	X23	Y23	Z23	X24	Y24	Z24	X25	Y25	Z25	X26	Y26	Z26	X27	Y27	Z27	X28	Y28	Z28	X29	Y29	Z29	X30	Y30	Z30	X31	Y31	Z31	X32	Y32	Z32	X33	Y33	Z33	X34	Y34	Z34	X35	Y35	Z35	X36	Y36	Z36	X37	Y37	Z37	X38	Y38	Z38	X39	Y39	Z39	X40	Y40	Z40	X41	Y41	Z41	X42	Y42	Z42	

123	1.658333	1111.49861	1033.543846	-445.721309	1113.777694	1012.875581	-213.056758	946.826331	1063.61551	-380.210517	1032.411693	852.230415	-171.743837	1052.624617	699.460355	-221.640069	967.984184	628.38757	-230.473607	1090.542113	872.791562	-524.62202	1204.375453	803.729477	-510.114818	1188.864015	664.557288	-485.520855	830.9115849999999	457.345753	-286.508565	766.938082	503.089203	-225.780872	649.1056610000001	448.251026	-272.636462	1338.967802	474.195567	-430.317167	1315.959479	370.352149	-473.084768	1360.319099	281.956161	-407.988743	514.723145	554.203422	-279.497539	476.711909	349.168176	-309.222293	444.341012	360.750698	-207.459337	1264.099529	146.440102	-385.304578	1469.834342	147.06522	-350.121183	1462.575967	88.66932199999999	-440.169611	1067.895474	1499.776551	-530.027405	1137.055366	1499.53431	-176.66837	1166.951527	1450.428285	-344.535291	1057.806316	1537.690466	-355.938182	1113.379829	1425.216558	-122.651103	1108.950276	1334.857177	-128.016848	1023.857216	1350.095928	-98.04707399999999	991.643256	1240.922168	-60.111925	957.1123679999999	1237.593744	-125.993645	1000.638749	1471.872044	-569.0384790000001	941.4352249999999	1446.655461	-513.777707	933.935198	1391.470559	-581.260799	813.447399	1346.988575	-580.661928	812.334308	1346.712007	-507.041094	1082.961414	1207.059686	-75.868948	1217.461952	1112.695116	-152.949256	875.248832	1295.382796	-598.100161	1024.943489	1170.462455	-560.702648	974.541437	1128.598222	-576.537695	1178.179736	1059.842906	-133.264523	950.287292	1063.216057	-281.247032	
124	1.666667	1111.042884	1029.81427	-446.326616	1114.584379	1008.146735	-212.462547	945.963299	1058.539735	-379.041507	1036.718273	847.816274	-171.487816	1059.871159	694.784324	-219.152079	977.609455	622.024043	-231.03729	1090.390538	868.250257	-525.430763	1201.615674	796.177181	-509.928832	1184.308603	658.723703	-484.105676	843.66116	456.183788	-284.957156	781.244567	507.525574	-226.611792	661.443502	457.885797	-272.871907	1331.394832	466.619517	-429.846897	1306.229836	362.020847	-471.425162	1349.542802	272.866235	-406.082258	532.3708360000001	570.8463369999999	-285.678236	485.152488	366.478588	-305.087809	454.625837	384.464921	-203.599553	1250.834326	139.752555	-382.895294	1456.157063	134.040995	-348.646616	1446.311983	77.698109	-439.294694	1069.833823	1492.893381	-532.005275	1136.929605	1494.408648	-177.757808	1167.33668	1444.648484	-345.322262	1058.805691	1532.776144	-357.995619	1112.056615	1420.843766	-123.387616	1105.638027	1329.944781	-128.98479	1021.655171	1347.122194	-98.690282	986.625704	1239.2106	-60.623146	952.633832	1235.872427	-126.308241	1003.072287	1463.677003	-572.14369	943.141708	1438.666992	-517.824476	937.517289	1382.143673	-584.6174099999999	817.77472	1335.404233	-585.400529	815.4406269999999	1335.91806	-511.764036	1075.990839	1201.39507	-75.096667	1207.305884	1097.664322	-147.288716	880.724104	1284.86067	-601.470315	1032.650687	1163.988686	-560.962609	983.4450880000001	1120.693	-577.291512	1163.750865	1047.807666	-129.068178	950.37019	1057.008955	-279.973215	
125	1.675	1110.839469	1025.282367	-446.826529	1115.194381	1002.483769	-212.010805	945.237067	1053.202874	-377.978662	1040.443926	842.870594	-171.040774	1067.657843	689.549229	-216.52454	988.032028	615.268729	-231.303613	1089.889818	862.726387	-524.733098	1200.158776	790.6622159999999	-509.752316	1181.323037	653.38059	-483.753848	857.756804	454.451461	-283.339932	797.202889	510.80667	-227.160454	675.5835049999999	466.346036	-273.097513	1322.820168	457.614848	-428.332494	1295.23316	352.941716	-469.999478	1336.526864	262.406612	-404.617502	551.529184	585.430472	-291.734113	496.626632	382.261184	-301.419075	467.956499	406.033429	-200.521873	1233.702652	132.998593	-381.832415	1437.66748	118.291298	-345.589623	1426.903945	63.925383	-437.252239	1071.645624	1485.081104	-533.935032	1136.301939	1488.634856	-178.645323	1167.688687	1438.260992	-345.992959	1059.572731	1527.016215	-359.893111	1110.077889	1415.582386	-123.973162	1101.716623	1324.455759	-129.718277	1018.873219	1343.191577	-99.18335	981.262454	1236.819113	-61.281873	948.982744	1233.371448	-126.752733	1005.652464	1453.981803	-575.437944	944.40072	1429.362358	-522.605007	941.295073	1371.189049	-588.316056	822.440124	1322.266039	-590.477045	818.661961	1323.631363	-516.90289	1068.605069	1194.958322	-74.129828	1195.766026	1081.93083	-141.379696	886.537885	1272.992152	-605.276165	1040.795009	1156.592183	-561.2107119999999	992.944461	1111.775184	-577.947507	1148.10243	1035.357791	-124.711927	950.4360830000001	1050.396967	-279.010679	
126	1.683333	1110.874279	1019.882781	-446.947124	1115.719543	996.226868	-211.900133	944.791671	1047.400768	-377.062403	1043.729573	837.201374	-170.570756	1076.069427	683.915005	-213.686878	999.319058	607.995144	-231.121448	1089.226498	856.592652	-522.671556	1199.412373	786.772534	-509.000753	1179.176955	647.931224	-483.784383	873.09966	452.123513	-281.468826	814.669023	513.051539	-227.441004	691.415992	473.509654	-273.285434	1313.588885	447.189966	-426.277451	1282.986332	343.048562	-468.707244	1320.596373	250.723114	-403.618272	571.937271	597.971616	-297.187442	510.849755	396.271701	-298.39212	484.09958	424.851456	-198.248097	1211.992011	125.963694	-381.834556	1414.375953	102.390677	-340.935736	1404.336179	49.832923	-434.881643	1073.347928	1476.448106	-535.766482	1135.226591	1482.256305	-179.377529	1167.981145	1431.362521	-346.570647	1060.063778	1520.470155	-361.678399	1107.624374	1409.507749	-124.526919	1097.36032	1318.588793	-130.297053	1015.505951	1338.499196	-99.743882	975.612516	1233.782898	-62.105103	945.9166719999999	1230.382874	-127.441043	1008.429948	1442.913041	-578.843941	945.347745	1418.716057	-528.010889	945.336644	1358.696374	-592.247738	827.541974	1307.731149	-595.857748	822.122669	1309.938862	-522.434158	1060.794224	1187.712463	-72.945637	1182.855666	1065.648627	-135.411166	892.802448	1259.892342	-609.413581	1049.326702	1148.335724	-561.46413	1002.99487	1101.921359	-578.434982	1131.342987	1022.676306	-120.285182	950.4511209999999	1043.50127	-278.456623	
